<svg width="25" height="19" viewBox="0 0 25 19" fill="none" xmlns="http://www.w3.org/2000/svg">
<path d="M22.3781 3.32617H18.5549L16.2666 1.01523C16.2666 1.01523 16.2553 1.00391 16.2496 1.00391L16.2383 0.992578C15.8984 0.652735 15.4396 0.4375 14.9186 0.4375H10.1607C9.60566 0.4375 9.11289 0.675391 8.76738 1.05488V1.06055L6.53008 3.32617H2.62187C1.56836 3.32617 0.71875 4.15312 0.71875 5.20664V16.6537C0.71875 17.7072 1.56836 18.5625 2.62187 18.5625H22.3781C23.426 18.5625 24.2812 17.7072 24.2812 16.6537V5.20664C24.2812 4.15312 23.426 3.32617 22.3781 3.32617ZM12.5 15.7021C9.61699 15.7021 7.26641 13.3459 7.26641 10.4572C7.26641 7.56289 9.61699 5.21231 12.5 5.21231C15.3887 5.21231 17.7336 7.56289 17.7336 10.4572C17.7336 13.3459 15.3887 15.7021 12.5 15.7021ZM22.0213 6.35645C21.5852 6.35645 21.2283 5.99961 21.2283 5.55781C21.2283 5.11602 21.5852 4.75918 22.0213 4.75918C22.4574 4.75918 22.8143 5.11602 22.8143 5.55781C22.8143 5.99961 22.4574 6.35645 22.0213 6.35645Z" fill="black"/>
</svg>
