<svg width="15" height="13" viewBox="0 0 15 13" fill="none" xmlns="http://www.w3.org/2000/svg">
<path d="M13.6685 0.392273H1.19561C0.699237 0.392273 0.304688 0.796368 0.304688 1.29274V11.7101C0.304688 12.2065 0.699237 12.6106 1.19561 12.6106H13.6685C14.1648 12.6106 14.5594 12.2065 14.5594 11.7101V1.29274C14.5594 0.796368 14.1648 0.392273 13.6685 0.392273ZM10.388 6.68279C10.2925 6.57143 10.1462 6.48552 9.9807 6.48552C9.81842 6.48552 9.70388 6.56188 9.57342 6.66688L8.97841 7.16962C8.85432 7.25871 8.75568 7.31916 8.6125 7.31916C8.47568 7.31916 8.35159 7.26825 8.2625 7.18871C8.23068 7.16007 8.17341 7.10598 8.12568 7.05825L6.41384 5.20641C6.28657 5.06005 6.09566 4.96778 5.88247 4.96778C5.66929 4.96778 5.47201 5.07278 5.34792 5.21596L1.32288 10.0715V1.78274C1.3547 1.56638 1.52334 1.41047 1.7397 1.41047H13.1212C13.3407 1.41047 13.5189 1.57274 13.5316 1.79229L13.5412 10.0778L10.388 6.68279Z" fill="black" fill-opacity="0.75"/>
</svg>
