<svg width="16" height="4" viewBox="0 0 16 4" fill="none" xmlns="http://www.w3.org/2000/svg">
<path d="M1.6 3.59999C2.48366 3.59999 3.2 2.88365 3.2 1.99999C3.2 1.11634 2.48366 0.399994 1.6 0.399994C0.716344 0.399994 0 1.11634 0 1.99999C0 2.88365 0.716344 3.59999 1.6 3.59999Z" fill="black" fill-opacity="0.4"/>
<path d="M7.9999 3.59999C8.88356 3.59999 9.5999 2.88365 9.5999 1.99999C9.5999 1.11634 8.88356 0.399994 7.9999 0.399994C7.11625 0.399994 6.3999 1.11634 6.3999 1.99999C6.3999 2.88365 7.11625 3.59999 7.9999 3.59999Z" fill="black" fill-opacity="0.4"/>
<path d="M14.4 3.59998C15.2837 3.59998 16 2.88363 16 1.99998C16 1.11632 15.2837 0.399979 14.4 0.399979C13.5164 0.399979 12.8 1.11632 12.8 1.99998C12.8 2.88363 13.5164 3.59998 14.4 3.59998Z" fill="black" fill-opacity="0.4"/>
</svg>
