<svg width="16" height="17" viewBox="0 0 16 17" fill="none" xmlns="http://www.w3.org/2000/svg">
<g clip-path="url(#clip0_211_108)">
<path d="M1.03984 0.976196H13.2201C13.4276 0.976196 13.596 1.14462 13.596 1.35215V2.04177H14.7543C14.9619 2.04177 15.1301 2.21001 15.1301 2.41773V13.1963C15.1301 13.4038 14.9619 13.5722 14.7543 13.5722H13.596V15.6505C13.596 15.858 13.4276 16.0265 13.2201 16.0265H1.03984C0.832302 16.0265 0.664062 15.858 0.664062 15.6505V1.35215C0.664062 1.14462 0.832302 0.976196 1.03984 0.976196ZM13.596 2.79369V12.8203H14.3784V2.79369H13.596ZM3.74833 4.34225C3.25393 4.34225 3.25393 3.59033 3.74833 3.59033H10.5116C11.006 3.59033 11.006 4.34225 10.5116 4.34225H3.74833ZM3.74833 13.4123C3.25393 13.4123 3.25393 12.6604 3.74833 12.6604H10.5116C11.006 12.6604 11.006 13.4123 10.5116 13.4123H3.74833ZM3.74833 6.60977C3.25393 6.60977 3.25393 5.85803 3.74833 5.85803H10.5116C11.006 5.85803 11.006 6.60977 10.5116 6.60977H3.74833ZM3.74833 8.87729C3.25393 8.87729 3.25393 8.12555 3.74833 8.12555H10.5116C11.006 8.12555 11.006 8.87729 10.5116 8.87729H3.74833ZM3.74833 11.1448C3.25393 11.1448 3.25393 10.3929 3.74833 10.3929H10.5116C11.006 10.3929 11.006 11.1448 10.5116 11.1448H3.74833ZM12.8441 1.72811H1.4158V15.2745H12.8441V1.72811Z" fill="black" fill-opacity="0.75"/>
</g>
<defs>
<clipPath id="clip0_211_108">
<rect width="15.3328" height="15.3328" fill="white" transform="translate(0.229492 0.834961)"/>
</clipPath>
</defs>
</svg>
