<svg width="20" height="20" viewBox="0 0 20 20" fill="none" xmlns="http://www.w3.org/2000/svg">
<path d="M6.97003 1.77203C9.82203 1.77203 12.168 4.11803 12.168 6.97003C12.168 9.82203 9.82203 12.168 6.97003 12.168C4.11803 12.168 1.77203 9.86803 1.77203 6.97003C1.77203 4.07203 4.07203 1.77203 6.97003 1.77203ZM6.97003 0.392029C3.33603 0.392029 0.392029 3.33603 0.392029 6.97003C0.392029 10.604 3.33603 13.548 6.97003 13.548C10.604 13.548 13.548 10.604 13.548 6.97003C13.548 3.33603 10.558 0.392029 6.97003 0.392029Z" fill="black" fill-opacity="0.22"/>
<path d="M11.248 11.202L12.766 12.72" stroke="black" stroke-opacity="0.22" stroke-width="1.5" stroke-miterlimit="10"/>
<path d="M18.6081 18.6081L13.1801 13.1801" stroke="black" stroke-opacity="0.22" stroke-width="2.5" stroke-miterlimit="10" stroke-linecap="round"/>
</svg>
