<svg width="22" height="22" viewBox="0 0 22 22" fill="none" xmlns="http://www.w3.org/2000/svg">
<path d="M18.0002 14.1763C16.9602 14.1763 16.0249 14.6138 15.3607 15.312L7.6008 11.5128C7.62749 11.3343 7.64587 11.1536 7.64587 10.9676C7.64587 10.7865 7.62837 10.6098 7.60299 10.4361L15.3516 6.6784C16.0161 7.38234 16.9559 7.82421 18.0002 7.82421C20.0136 7.82421 21.6459 6.1919 21.6459 4.17852C21.6459 2.16471 20.0136 0.532837 18.0002 0.532837C15.9868 0.532837 14.3545 2.16471 14.3545 4.17852C14.3545 4.35965 14.372 4.53596 14.3974 4.71009L6.6488 8.46777C5.98424 7.76384 5.04493 7.32196 4.00018 7.32196C1.98637 7.32196 0.354492 8.95427 0.354492 10.9676C0.354492 12.9815 1.98637 14.6133 4.00018 14.6133C5.04012 14.6133 5.97549 14.1758 6.63962 13.4776L14.3996 17.2768C14.3729 17.4549 14.3545 17.636 14.3545 17.822C14.3545 19.8358 15.9868 21.4676 18.0002 21.4676C20.0136 21.4676 21.6459 19.8358 21.6459 17.822C21.6459 15.8081 20.0136 14.1763 18.0002 14.1763Z" fill="#6F6B6A" fill-opacity="0.5"/>
</svg>
