<svg width="16" height="15" viewBox="0 0 16 15" fill="none" xmlns="http://www.w3.org/2000/svg">
<path d="M14.8456 14.6287H0.590883C0.455863 14.6287 0.326372 14.5751 0.230898 14.4796C0.135424 14.3841 0.0817871 14.2546 0.0817871 14.1196V0.88312C0.0817871 0.748099 0.135424 0.618608 0.230898 0.523134C0.326372 0.42766 0.455863 0.374023 0.590883 0.374023H14.8456C14.9806 0.374023 15.1101 0.42766 15.2056 0.523134C15.301 0.618608 15.3547 0.748099 15.3547 0.88312V14.1196C15.3547 14.2546 15.301 14.3841 15.2056 14.4796C15.1101 14.5751 14.9806 14.6287 14.8456 14.6287ZM1.09998 13.6105H14.3365V1.39222H1.09998V13.6105Z" fill="#101820" fill-opacity="0.75"/>
<path d="M5.68195 11.0651C5.59449 11.0649 5.50858 11.0421 5.43249 10.9989C5.35385 10.9547 5.28837 10.8904 5.24275 10.8126C5.19713 10.7348 5.17301 10.6462 5.17285 10.556V4.44687C5.17287 4.35702 5.19667 4.26876 5.24183 4.19108C5.28699 4.1134 5.35191 4.04905 5.43 4.00458C5.50808 3.96011 5.59654 3.9371 5.68639 3.93789C5.77625 3.93867 5.86429 3.96322 5.94159 4.00905L11.0325 7.06363C11.1085 7.10871 11.1715 7.17277 11.2152 7.24954C11.2589 7.3263 11.2819 7.41312 11.2819 7.50145C11.2819 7.58979 11.2589 7.6766 11.2152 7.75336C11.1715 7.83013 11.1085 7.8942 11.0325 7.93927L5.94159 10.9939C5.86301 11.0405 5.77332 11.0651 5.68195 11.0651ZM6.19104 5.34797V9.65493L9.78526 7.50145L6.19104 5.34797Z" fill="#101820" fill-opacity="0.75"/>
</svg>
