<svg width="310" height="48" viewBox="0 0 310 48" fill="none" xmlns="http://www.w3.org/2000/svg">
<path d="M41.4087 17.2227H31.6097C31.4308 15.9549 31.0653 14.8288 30.5135 13.8445C29.9616 12.8452 29.2532 11.995 28.3881 11.294C27.5231 10.593 26.5238 10.0561 25.3903 9.68324C24.2717 9.31037 23.0561 9.12394 21.7436 9.12394C19.3722 9.12394 17.3065 9.71307 15.5465 10.8913C13.7866 12.0547 12.4219 13.755 11.4524 15.9922C10.483 18.2145 9.99822 20.9141 9.99822 24.0909C9.99822 27.3572 10.483 30.1016 11.4524 32.3239C12.4368 34.5462 13.8089 36.2241 15.5689 37.3576C17.3288 38.4911 19.3647 39.0579 21.6765 39.0579C22.9741 39.0579 24.1747 38.8864 25.2784 38.5433C26.397 38.2003 27.3889 37.7006 28.2539 37.0444C29.119 36.3732 29.8349 35.5604 30.4016 34.6058C30.9833 33.6513 31.386 32.5625 31.6097 31.3395L41.4087 31.3842C41.1552 33.4872 40.5213 35.5156 39.5071 37.4695C38.5078 39.4084 37.158 41.146 35.4577 42.6822C33.7724 44.2035 31.7589 45.4116 29.4173 46.3065C27.0906 47.1864 24.4581 47.6264 21.5199 47.6264C17.4332 47.6264 13.7791 46.7017 10.5575 44.8523C7.35085 43.0028 4.81534 40.3256 2.95099 36.8207C1.10156 33.3157 0.176847 29.0724 0.176847 24.0909C0.176847 19.0945 1.11648 14.8438 2.99574 11.3388C4.875 7.83381 7.42543 5.16406 10.647 3.32955C13.8686 1.48011 17.4929 0.555396 21.5199 0.555396C24.1747 0.555396 26.6357 0.928265 28.9027 1.674C31.1847 2.41974 33.2056 3.50852 34.9656 4.94034C36.7255 6.35724 38.1573 8.09481 39.261 10.1531C40.3796 12.2113 41.0955 14.5678 41.4087 17.2227ZM63.8368 47.6712C60.302 47.6712 57.2594 46.9553 54.709 45.5234C52.1735 44.0767 50.2196 42.0334 48.8475 39.3935C47.4753 36.7386 46.7892 33.5991 46.7892 29.9748C46.7892 26.44 47.4753 23.3377 48.8475 20.668C50.2196 17.9982 52.1511 15.9176 54.6419 14.4261C57.1475 12.9347 60.0858 12.1889 63.4565 12.1889C65.7235 12.1889 67.834 12.5543 69.7878 13.2852C71.7566 14.0011 73.4718 15.0824 74.9334 16.5291C76.41 17.9759 77.5584 19.7955 78.3787 21.9879C79.199 24.1655 79.6092 26.7159 79.6092 29.6392V32.2567H50.5925V26.3505H70.638C70.638 24.9783 70.3397 23.7628 69.7431 22.7038C69.1465 21.6449 68.3187 20.8171 67.2598 20.2205C66.2157 19.609 65.0002 19.3033 63.6131 19.3033C62.1664 19.3033 60.8837 19.6388 59.7651 20.31C58.6614 20.9663 57.7963 21.8537 57.1699 22.9723C56.5435 24.076 56.2228 25.3065 56.2079 26.6637V32.2791C56.2079 33.9794 56.5211 35.4485 57.1475 36.6864C57.7889 37.9244 58.6912 38.8789 59.8546 39.5501C61.0179 40.2212 62.3975 40.5568 63.9934 40.5568C65.0524 40.5568 66.0218 40.4077 66.9018 40.1094C67.7818 39.8111 68.535 39.3636 69.1614 38.767C69.7878 38.1705 70.2651 37.4396 70.5932 36.5746L79.4079 37.1562C78.9604 39.2741 78.0431 41.1236 76.6561 42.7045C75.2839 44.2706 73.5091 45.4936 71.3315 46.3736C69.1689 47.2386 66.6706 47.6712 63.8368 47.6712Z" fill="black"/>
<path d="M86.0076 47V1.18182H104.353C107.724 1.18182 110.535 1.68146 112.787 2.68075C115.039 3.68004 116.732 5.06712 117.866 6.84197C118.999 8.60192 119.566 10.6303 119.566 12.9272C119.566 14.717 119.208 16.2905 118.492 17.6477C117.776 18.9901 116.792 20.0937 115.539 20.9588C114.301 21.8089 112.884 22.413 111.288 22.771V23.2184C113.033 23.293 114.666 23.7852 116.188 24.695C117.724 25.6048 118.969 26.88 119.924 28.5206C120.878 30.1463 121.356 32.0852 121.356 34.3374C121.356 36.7685 120.752 38.9386 119.544 40.8477C118.35 42.7418 116.583 44.2408 114.241 45.3445C111.9 46.4482 109.014 47 105.583 47H86.0076ZM95.6948 39.0803H103.592C106.292 39.0803 108.26 38.5657 109.498 37.5366C110.736 36.4925 111.355 35.1055 111.355 33.3754C111.355 32.1076 111.05 30.989 110.438 30.0195C109.827 29.0501 108.954 28.2894 107.82 27.7376C106.702 27.1857 105.367 26.9098 103.816 26.9098H95.6948V39.0803ZM95.6948 20.3548H102.876C104.204 20.3548 105.382 20.1236 106.411 19.6612C107.455 19.1839 108.275 18.5128 108.872 17.6477C109.483 16.7827 109.789 15.7461 109.789 14.538C109.789 12.8825 109.2 11.5476 108.022 10.5334C106.858 9.51917 105.203 9.01207 103.055 9.01207H95.6948V20.3548ZM127.48 47V12.6364H136.72V18.6321H137.078C137.704 16.4993 138.756 14.8885 140.232 13.7997C141.709 12.696 143.409 12.1442 145.333 12.1442C145.81 12.1442 146.325 12.174 146.877 12.2337C147.429 12.2933 147.913 12.3754 148.331 12.4798V20.9364C147.883 20.8022 147.264 20.6829 146.474 20.5785C145.684 20.4741 144.96 20.4219 144.304 20.4219C142.902 20.4219 141.649 20.7276 140.545 21.3391C139.457 21.9357 138.592 22.771 137.95 23.8448C137.324 24.9187 137.011 26.1566 137.011 27.5586V47H127.48ZM167.185 47.6712C163.71 47.6712 160.705 46.9329 158.169 45.4563C155.648 43.9648 153.702 41.8917 152.33 39.2369C150.958 36.5671 150.272 33.4723 150.272 29.9524C150.272 26.4027 150.958 23.3004 152.33 20.6456C153.702 17.9759 155.648 15.9027 158.169 14.4261C160.705 12.9347 163.71 12.1889 167.185 12.1889C170.66 12.1889 173.658 12.9347 176.179 14.4261C178.714 15.9027 180.668 17.9759 182.04 20.6456C183.412 23.3004 184.098 26.4027 184.098 29.9524C184.098 33.4723 183.412 36.5671 182.04 39.2369C180.668 41.8917 178.714 43.9648 176.179 45.4563C173.658 46.9329 170.66 47.6712 167.185 47.6712ZM167.23 40.2884C168.811 40.2884 170.131 39.8409 171.19 38.946C172.249 38.0362 173.047 36.7983 173.583 35.2322C174.135 33.6662 174.411 31.8839 174.411 29.8853C174.411 27.8867 174.135 26.1044 173.583 24.5384C173.047 22.9723 172.249 21.7344 171.19 20.8246C170.131 19.9148 168.811 19.4599 167.23 19.4599C165.634 19.4599 164.292 19.9148 163.203 20.8246C162.129 21.7344 161.316 22.9723 160.764 24.5384C160.227 26.1044 159.959 27.8867 159.959 29.8853C159.959 31.8839 160.227 33.6662 160.764 35.2322C161.316 36.7983 162.129 38.0362 163.203 38.946C164.292 39.8409 165.634 40.2884 167.23 40.2884ZM196.213 47L186.861 12.6364H196.504L201.828 35.7244H202.142L207.69 12.6364H217.153L222.791 35.5902H223.082L228.317 12.6364H237.937L228.608 47H218.518L212.612 25.3885H212.187L206.28 47H196.213ZM271.613 22.4354L262.888 22.9723C262.738 22.2266 262.418 21.5554 261.926 20.9588C261.433 20.3473 260.785 19.8626 259.979 19.5046C259.189 19.1317 258.242 18.9453 257.138 18.9453C255.661 18.9453 254.416 19.2585 253.402 19.8849C252.388 20.4964 251.88 21.3168 251.88 22.3459C251.88 23.1662 252.209 23.8597 252.865 24.4265C253.521 24.9933 254.647 25.4482 256.243 25.7912L262.462 27.044C265.803 27.7301 268.294 28.8338 269.935 30.3551C271.575 31.8764 272.396 33.875 272.396 36.3509C272.396 38.603 271.732 40.5792 270.405 42.2795C269.092 43.9798 267.287 45.3072 264.991 46.2617C262.709 47.2013 260.076 47.6712 257.093 47.6712C252.544 47.6712 248.92 46.7241 246.22 44.8299C243.536 42.9208 241.962 40.3256 241.5 37.0444L250.874 36.5522C251.157 37.9393 251.843 38.9982 252.932 39.729C254.021 40.445 255.415 40.8029 257.116 40.8029C258.786 40.8029 260.128 40.4822 261.142 39.8409C262.172 39.1847 262.694 38.342 262.709 37.3129C262.694 36.4478 262.328 35.7393 261.612 35.1875C260.896 34.6207 259.793 34.1882 258.301 33.8899L252.35 32.7042C248.994 32.033 246.496 30.8697 244.856 29.2141C243.23 27.5586 242.417 25.4482 242.417 22.8828C242.417 20.6754 243.014 18.7738 244.207 17.1779C245.415 15.582 247.108 14.3516 249.285 13.4865C251.478 12.6214 254.043 12.1889 256.981 12.1889C261.321 12.1889 264.737 13.1062 267.228 14.9407C269.733 16.7752 271.195 19.2734 271.613 22.4354ZM294.058 47.6712C290.523 47.6712 287.48 46.9553 284.93 45.5234C282.394 44.0767 280.44 42.0334 279.068 39.3935C277.696 36.7386 277.01 33.5991 277.01 29.9748C277.01 26.44 277.696 23.3377 279.068 20.668C280.44 17.9982 282.372 15.9176 284.863 14.4261C287.368 12.9347 290.306 12.1889 293.677 12.1889C295.944 12.1889 298.055 12.5543 300.009 13.2852C301.977 14.0011 303.692 15.0824 305.154 16.5291C306.631 17.9759 307.779 19.7955 308.599 21.9879C309.42 24.1655 309.83 26.7159 309.83 29.6392V32.2567H280.813V26.3505H300.859C300.859 24.9783 300.56 23.7628 299.964 22.7038C299.367 21.6449 298.539 20.8171 297.48 20.2205C296.436 19.609 295.221 19.3033 293.834 19.3033C292.387 19.3033 291.104 19.6388 289.986 20.31C288.882 20.9663 288.017 21.8537 287.391 22.9723C286.764 24.076 286.444 25.3065 286.429 26.6637V32.2791C286.429 33.9794 286.742 35.4485 287.368 36.6864C288.01 37.9244 288.912 38.8789 290.075 39.5501C291.239 40.2212 292.618 40.5568 294.214 40.5568C295.273 40.5568 296.243 40.4077 297.123 40.1094C298.002 39.8111 298.756 39.3636 299.382 38.767C300.009 38.1705 300.486 37.4396 300.814 36.5746L309.629 37.1562C309.181 39.2741 308.264 41.1236 306.877 42.7045C305.505 44.2706 303.73 45.4936 301.552 46.3736C299.39 47.2386 296.891 47.6712 294.058 47.6712Z" fill="#FA3C28"/>
</svg>
